# AST/ASF file generated using VICON BodyLanguage
# -----------------------------------------------
:version 1.10
:name VICON
:units
  mass 1.0
  length 0.45
  angle deg
:documentation
   .ast/.asf automatically generated from VICON data using
   VICON BodyBuilder and BodyLanguage model FoxedUp or BRILLIANT.MOD
:root
   order TX TY TZ RX RY RZ
   axis XYZ
   position 0 0 0  
   orientation 0 0 0 
:bonedata
  begin
     id 1 
     name lhipjoint
     direction 0.528046 -0.759594 0.379717 
     length 2.39752 
     axis 0 0 0  XYZ
  end
  begin
     id 2 
     name lfemur
     direction 0.34202 -0.939693 0  
     length 7.31175  
     axis 0 0 20  XYZ
    dof rx ry rz
    limits (-160.0 20.0)
           (-70.0 70.0)
           (-60.0 70.0)
  end
  begin
     id 3 
     name ltibia
     direction 0.34202 -0.939693 0   
     length 7.52482   
     axis 0 0 20   XYZ
    dof rx
    limits (-10.0 170.0)
  end
  begin
     id 4 
     name lfoot
     direction 0.0675379 -0.185559 0.980309   
     length 2.00961   
     axis -90 7.62852e-016 20   XYZ
    dof rx rz
    limits (-45.0 90.0)
           (-70.0 20.0)
  end
  begin
     id 5 
     name ltoes
     direction 1.5352e-011 -4.22286e-011 1   
     length 1.01383   
     axis -90 7.62852e-016 20   XYZ
    dof rx
    limits (-90.0 20.0)
  end
  begin
     id 6 
     name rhipjoint
     direction -0.510274 -0.769251 0.384544   
     length 2.36742  
     axis 0 0 0  XYZ 
  end
  begin
     id 7 
     name rfemur
     direction -0.34202 -0.939693 0   
     length 7.45325   
     axis 0 0 -20   XYZ
    dof rx ry rz
    limits (-160.0 20.0)
           (-70.0 70.0)
           (-70.0 60.0)
  end
  begin
     id 8 
     name rtibia
     direction -0.34202 -0.939693 0   
     length 7.49587   
     axis 0 0 -20   XYZ
    dof rx
    limits (-10.0 170.0)
 end
 begin
     id 9 
     name rfoot
     direction -0.106475 -0.292536 0.950308   
     length 2.20898  
     axis -90 -7.62852e-016 -20   XYZ
    dof rx rz
    limits (-45.0 90.0)
           (-20.0 70.0)
  end
  begin
     id 10 
     name rtoes
     direction -1.53597e-011 -4.22023e-011 1   
     length 1.10065   
     axis -90 -7.62852e-016 -20   XYZ
    dof rx
    limits (-90.0 20.0)
  end
  begin
     id 11 
     name lowerback
     direction 0.0260024 0.998026 -0.0571652   
     length 2.11214   
     axis 0 0 0   XYZ
    dof rx ry rz
    limits (-20.0 45.0)
           (-30.0 30.0)
           (-30.0 30.0)
  end
  begin
     id 12 
     name upperback
     direction 0.0216202 0.999542 -0.0211766   
     length 2.11689   
     axis 0 0 0   XYZ
    dof rx ry rz
    limits (-20.0 45.0)
           (-30.0 30.0)
           (-30.0 30.0)
  end
  begin
     id 13 
     name thorax
     direction 0.00883312 0.999944 0.00589057   
     length 2.11821   
     axis 0 0 0   XYZ
    dof rx ry rz
    limits (-20.0 45.0)
           (-30.0 30.0)
           (-30.0 30.0)
  end
  begin
     id 14 
     name lowerneck
     direction -0.059386 0.994433 0.0870401   
     length 1.81176   
     axis 0 0 0   XYZ
    dof rx ry rz
    limits (-20.0 45.0)
           (-30.0 30.0)
           (-30.0 30.0)
  end
  begin
     id 15 
     name upperneck
     direction 0.0506457 0.97328 -0.223967   
     length 1.82382   
     axis 0 0 0   XYZ
    dof rx ry rz
    limits (-20.0 45.0)
           (-30.0 30.0)
           (-30.0 30.0)
  end
  begin
     id 16
     name head
     direction 0.0205902 0.996147 -0.0852487  
     length 1.84805  
     axis 0 0 0   XYZ
    dof rx ry rz
    limits (-20.0 45.0)
           (-30.0 30.0)
           (-30.0 30.0)
  end
  begin
     id 17 
     name lclavicle
     direction 0.949493 0.303881 -0.0782325  
     length 3.60584  
     axis 0 0 0   XYZ
    dof ry rz
    limits (-20.0 10.0)
           (0.0 20.0)
  end
  begin
     id 18 
     name lhumerus
     direction 1 -4.48965e-011 1.48782e-027   
     length 4.95681   
     axis 180 -30 -90   XYZ
    dof rx ry rz
    limits (-60.0 90.0)
           (-90.0 90.0)
           (-90.0 90.0)
  end
  begin
     id 19
     name lradius
     direction 1 -4.48952e-011 2.06528e-027   
     length 3.40915   
     axis 180 -30 -90   XYZ
    dof rx
    limits (-10.0 170.0)
  end
  begin
     id 20
     name lwrist
     direction 1 -4.48964e-011 1.28021e-027   
     length 1.70457   
     axis -1.61767e-015 90 90   XYZ
    dof ry
    limits (-180.0 0.0)
 end
  begin
     id 21 
     name lhand
     direction 1 -4.49094e-011 2.54887e-027   
     length 0.616403   
     axis -1.63363e-015 90 90   XYZ
    dof rx rz
    limits (-90.0 90.0)
           (-45.0 45.0)
  end
  begin
     id 22 
     name lfingers
     direction 1 -4.49002e-011 5.11407e-027   
     length 0.49696   
     axis -3.26723e-015 90 90   XYZ
    dof rx
    limits (0.0 90.0)
  end
  begin
     id 23
     name lthumb
     direction 0.707107 -6.34998e-011 0.707107   
     length 0.713539   
     axis -90 45 -2.25915e-014   XYZ
    dof rx rz
    limits (-45.0 45.0)
           (-45.0 45.0)
  end
  begin
     id 24 
     name rclavicle
     direction -0.937751 0.334612 -0.0930482   
     length 3.46287  
     axis 0 0 0   XYZ 
    dof ry rz
    limits (-10.0 20.0)
           (-20.0 0.0)
  end
  begin
     id 25 
     name rhumerus
     direction -1 -4.48962e-011 3.59972e-027  
     length 5.352   
     axis 180 30 90   XYZ
    dof rx ry rz
    limits (-90.0 60.0)
           (-90.0 90.0)
           (-90.0 90.0)
  end
  begin
     id 26 
     name rradius
     direction -1 -4.48987e-011 -3.76925e-027   
     length 3.43721   
     axis 180 30 90   XYZ
    dof rx
    limits (-10.0 170.0)
  end
  begin
     id 27 
     name rwrist
     direction -1 -4.48943e-011 1.28112e-027   
     length 1.7186   
     axis -1.61767e-015 -90 -90   XYZ
    dof ry
    limits (-180.0 0.0)
  end
  begin
     id 28
     name rhand
     direction -1 -4.49027e-011 2.55483e-027   
     length 0.72009   
     axis -1.63363e-015 -90 -90   XYZ
    dof rx rz
    limits (-90.0 90.0)
           (-45.0 45.0)
  end
  begin
     id 29
     name rfingers
     direction -1 -4.48827e-011 5.14506e-027   
     length 0.580555   
     axis -3.26723e-015 -90 -90   XYZ
    dof rx
    limits (0.0 90.0)
  end
  begin
     id 30
     name rthumb
     direction -0.707107 -6.34936e-011 0.707107   
     length 0.833564   
     axis -90 -45 2.25915e-014   XYZ
    dof rx rz
    limits (-45.0 45.0)
           (-45.0 45.0)
  end
:hierarchy
  begin
    root lhipjoint rhipjoint lowerback
    lhipjoint lfemur
    lfemur ltibia
    ltibia lfoot
    lfoot ltoes
    rhipjoint rfemur
    rfemur rtibia
    rtibia rfoot
    rfoot rtoes
    lowerback upperback
    upperback thorax
    thorax lowerneck lclavicle rclavicle
    lowerneck upperneck
    upperneck head
    lclavicle lhumerus
    lhumerus lradius
    lradius lwrist
    lwrist lhand lthumb
    lhand lfingers
    rclavicle rhumerus
    rhumerus rradius
    rradius rwrist
    rwrist rhand rthumb
    rhand rfingers
  end

#!OML:ASF H:\Terrain\Patient Classification 1\Terrain2\Thursday\justin.ASF
:FULLY-SPECIFIED
:DEGREES
121
root 1.48605 17.3331 -21.9756 -194.2 84.3613 -197.592
lowerback 1.3551 -1.3434 -4.31826
upperback 1.64191 -1.81455 1.93107
thorax 1.12838 -0.964528 4.41853
lowerneck -14.2273 -3.16564 -8.25933
upperneck 36.8321 -1.45545 2.05711
head 15.4539 -1.00456 2.22107
rclavicle 6.95746e-015 -1.35174e-014
rhumerus -30.0428 -15.0753 -76.9807
rradius 26.0612
rwrist -11.4491
rhand -20.0854 12.8023
rfingers 7.12502
rthumb 6.25742 -17.0852
lclavicle 6.95746e-015 -1.35174e-014
lhumerus -33.9306 5.29088 84.226
lradius 36.4298
lwrist 3.53177
lhand -18.0932 21.1504
lfingers 7.12502
lthumb 8.18038 50.972
rfemur -29.0932 -3.14462 18.759
rtibia 22.4467
rfoot -15.3371 -2.92328
rtoes 4.74832
lfemur 12.9213 0.963974 -23.7149
ltibia 9.08028
lfoot -3.80166 -13.1154
ltoes 4.53174
122
root 1.62534 17.3484 -21.9576 -192.348 83.9466 -195.861
lowerback 1.23278 -1.42971 -4.2025
upperback 1.58619 -1.92578 1.9692
thorax 1.14888 -1.01878 4.38968
lowerneck -14.1954 -3.20399 -8.4985
upperneck 36.8817 -1.50326 2.24992
head 15.4812 -1.02977 2.33964
rclavicle -7.15625e-015 5.96354e-015
rhumerus -30.3187 -15.7581 -76.572
rradius 25.4119
rwrist -10.9046
rhand -20.8248 13.0436
rfingers 7.12502
rthumb 5.54346 -16.8639
lclavicle -7.15625e-015 5.96354e-015
lhumerus -34.0394 4.89366 84.4076
lradius 35.9775
lwrist 3.60744
lhand -17.7162 21.2957
lfingers 7.12502
lthumb 8.5442 51.1028
rfemur -29.114 -4.60066 19.6066
rtibia 22.3843
rfoot -13.7174 -3.05904
rtoes -3.91784
lfemur 13.3122 0.254074 -23.5429
ltibia 8.7971
lfoot -2.87168 -12.9689
ltoes 5.13257
123
root 1.77127 17.3265 -21.9415 -189.845 83.9125 -193.333
lowerback 1.19286 -1.39686 -4.00488
upperback 1.552 -1.87995 2.07844
thorax 1.12801 -0.992883 4.39099
lowerneck -14.3554 -3.33092 -8.50019
upperneck 37.2201 -1.63115 2.214
head 15.6992 -1.0878 2.31258
rclavicle 3.37934e-015 -1.78906e-014
rhumerus -30.741 -16.2166 -76.2017
rradius 24.9747
rwrist -10.8983
rhand -21.434 12.8991
rfingers 7.12502
rthumb 4.95531 -17.0229
lclavicle 3.37934e-015 -1.78906e-014
lhumerus -34.2913 4.53181 84.7023
lradius 35.6002
lwrist 3.92958
lhand -17.693 21.3589
lfingers 7.12502
lthumb 8.56665 51.1652
rfemur -29.0342 -5.68063 20.5513
rtibia 22.4803
rfoot -12.3472 -2.96031
rtoes -12.2128
lfemur 14.2885 -0.080789 -23.216
ltibia 7.93224
lfoot -1.94357 -12.7525
ltoes 4.28578
124
root 1.92382 17.3851 -21.9309 -186.894 84.0592 -190.456
lowerback 1.02621 -1.32638 -3.6768
upperback 1.47277 -1.78019 2.1938
thorax 1.12219 -0.938231 4.32237
lowerneck -14.3332 -3.37085 -8.3946
upperneck 37.4308 -1.64026 2.06331
head 15.7984 -1.09389 2.23414
rclavicle -4.03533e-014 -1.59028e-014
rhumerus -31.218 -17.0451 -75.6979
rradius 24.42
rwrist -10.434
rhand -20.9588 12.6124
rfingers 7.12502
rthumb 5.41409 -17.2984
lclavicle -4.03533e-014 -1.59028e-014
lhumerus -34.5902 4.64519 84.8282
lradius 35.1232
lwrist 3.6584
lhand -17.7479 21.3569
lfingers 7.12502
lthumb 8.51362 51.1653
rfemur -28.4583 -3.59031 19.8851
rtibia 22.4084
rfoot -12.0914 -2.38805
rtoes 4.34824
lfemur 14.6839 -0.239018 -22.8033
ltibia 7.87745
lfoot -1.0541 -12.6294
ltoes 5.13937
125
root 2.0744 17.436 -21.9187 -183.923 84.2208 -187.699
lowerback 0.706505 -1.32901 -3.34693
upperback 1.37307 -1.7754 2.32575
thorax 1.19196 -0.932697 4.26593
lowerneck -14.2128 -3.25398 -8.43724
upperneck 37.514 -1.44703 2.07499
head 15.7986 -1.01362 2.28397
rclavicle 1.32192e-014 -1.35174e-014
rhumerus -31.6111 -17.859 -75.1822
rradius 23.7963
rwrist -9.65748
rhand -20.413 12.9174
rfingers 7.12502
rthumb 5.94112 -16.9793
lclavicle 1.32192e-014 -1.35174e-014
lhumerus -34.7562 5.1516 84.772
lradius 34.3441
lwrist 3.08792
lhand -17.5026 21.3311
lfingers 7.12502
lthumb 8.75031 51.1297
rfemur -28.1273 -3.25832 20.1739
rtibia 22.0802
rfoot -11.059 -2.15362
rtoes 7.45133
lfemur 14.5858 -0.370635 -22.3997
ltibia 8.44057
lfoot -0.428765 -12.623
ltoes 5.08471
126
root 2.21818 17.4261 -21.909 -177.321 84.2928 -181.162
lowerback 0.574436 -1.28747 -2.62349
upperback 1.31742 -1.71514 2.55266
thorax 1.18732 -0.893242 4.08997
lowerneck -14.2158 -3.27834 -8.54077
upperneck 37.6501 -1.45625 2.13828
head 15.8726 -1.02152 2.33282
rclavicle 5.56597e-015 -1.27222e-014
rhumerus -31.9369 -18.182 -74.7683
rradius 23.2267
rwrist -9.28391
rhand -20.514 12.951
rfingers 7.12502
rthumb 5.84359 -16.9484
lclavicle 5.56597e-015 -1.27222e-014
lhumerus -34.7676 5.33723 84.9041
lradius 33.4569
lwrist 2.71565
lhand -17.2525 21.4161
lfingers 7.12502
lthumb 8.9917 51.2045
rfemur -27.9031 -4.49935 21.6229
rtibia 22.0131
rfoot -9.76002 -1.62477
rtoes 0.286421
lfemur 14.8836 -0.566368 -21.6415
ltibia 8.57718
lfoot 0.248021 -12.5874
ltoes 2.69826
127
root 2.36132 17.4355 -21.8975 -169.92 84.2996 -173.727
lowerback 0.591812 -1.10461 -1.68063
upperback 1.3107 -1.4679 2.62073
thorax 1.12458 -0.756569 3.62988
lowerneck -14.2339 -3.46412 -8.39179
upperneck 37.6638 -1.8074 2.20059
head 15.9059 -1.13781 2.2729
rclavicle 1.43125e-014 1.59028e-015
rhumerus -32.3515 -19.301 -74.2797
rradius 22.6344
rwrist -8.39887
rhand -20.4336 12.302
rfingers 7.12502
rthumb 5.92121 -17.5953
lclavicle 1.43125e-014 1.59028e-015
lhumerus -34.8178 4.98874 84.8921
lradius 32.8788
lwrist 2.4409
lhand -17.1756 21.4707
lfingers 7.12502
lthumb 9.06593 51.2559
rfemur -27.6904 -3.7231 22.1185
rtibia 21.8152
rfoot -8.5905 -1.91201
rtoes 6.64664
lfemur 14.6659 -0.737893 -20.7653
ltibia 9.78553
lfoot 0.719459 -12.6604
ltoes 1.26587
128
root 2.50689 17.45 -21.8817 -166.302 84.5192 -170.132
lowerback 0.549371 -0.91037 -1.19731
upperback 1.31326 -1.20783 2.53786
thorax 1.11856 -0.620407 3.27226
lowerneck -14.317 -3.6212 -8.14234
upperneck 37.7053 -2.12808 2.22039
head 15.963 -1.23433 2.18185
rclavicle -4.91992e-015 -1.55052e-014
rhumerus -32.8433 -20.7585 -73.7192
rradius 22.1007
rwrist -7.22758
rhand -19.9548 12.0778
rfingers 7.12502
rthumb 6.38341 -17.806
lclavicle -4.91992e-015 -1.55052e-014
lhumerus -35.0151 5.27318 84.5046
lradius 32.479
lwrist 1.83318
lhand -16.8703 21.4383
lfingers 7.12502
lthumb 9.36048 51.2105
rfemur -27.0201 -3.45575 22.5127
rtibia 21.5693
rfoot -8.00356 -2.1864
rtoes 8.59635
lfemur 14.2959 -0.706242 -20.3373
ltibia 11.2139
lfoot 1.33553 -12.6039
ltoes 1.96948
129
root 2.6515 17.4545 -21.8677 -163.81 84.632 -167.691
lowerback 0.484514 -0.876737 -1.069
upperback 1.28584 -1.16162 2.67938
thorax 1.12421 -0.595539 3.34561
lowerneck -14.4934 -3.65738 -8.19418
upperneck 37.873 -2.12018 2.17153
head 16.0937 -1.2459 2.17482
rclavicle 1.20265e-014 -3.18055e-014
rhumerus -33.1366 -21.2783 -73.2098
rradius 21.5168
rwrist -6.60208
rhand -19.9983 12.1943
rfingers 7.12502
rthumb 6.34146 -17.6908
lclavicle 1.20265e-014 -3.18055e-014
lhumerus -35.2459 6.37019 84.2653
lradius 31.9721
lwrist 0.922542
lhand -16.3827 21.3333
lfingers 7.12502
lthumb 9.83092 51.0838
rfemur -26.6677 -4.57249 23.3757
rtibia 21.6255
rfoot -7.3718 -2.05746
rtoes 1.68129
lfemur 14.1016 -0.877817 -20.0694
ltibia 12.2194
lfoot 2.16306 -12.384
ltoes 2.82155
130
root 2.79589 17.4737 -21.8574 -164.921 84.6868 -168.845
lowerback 0.460186 -0.916372 -1.32583
upperback 1.22861 -1.21362 2.82089
thorax 1.09159 -0.62377 3.63679
lowerneck -14.6078 -3.57711 -8.36766
upperneck 37.9507 -1.90828 2.13104
head 16.1521 -1.18832 2.22729
rclavicle -5.26779e-015 -9.54166e-015
rhumerus -33.3777 -21.2696 -72.8447
rradius 21.0971
rwrist -6.42116
rhand -20.5047 12.0287
rfingers 7.12502
rthumb 5.85254 -17.8704
lclavicle -5.26779e-015 -9.54166e-015
lhumerus -35.6352 6.91333 84.3817
lradius 31.6704
lwrist 0.695358
lhand -16.177 21.4083
lfingers 7.12502
lthumb 10.0294 51.1493
rfemur -26.3661 -3.96266 22.861
rtibia 22.1942
rfoot -7.67455 -2.5254
rtoes 9.97861
lfemur 14.1529 -1.17541 -20.1919
ltibia 12.6402
lfoot 3.15498 -12.3582
ltoes -0.04082
131
root 2.94082 17.4628 -21.8498 -170.946 84.9626 -174.994
lowerback 0.319718 -0.891212 -1.91737
upperback 1.16065 -1.18178 2.69573
thorax 1.10824 -0.614762 3.84021
lowerneck -14.5199 -3.49784 -8.3656
upperneck 37.8202 -1.80321 2.11683
head 16.0547 -1.14576 2.23595
rclavicle 7.95139e-015 8.74653e-015
rhumerus -33.7446 -21.6402 -72.4882
rradius 20.823
rwrist -6.12144
rhand -20.8657 11.9223
rfingers 7.12502
rthumb 5.50406 -17.9862
lclavicle 7.95139e-015 8.74653e-015
lhumerus -36.2113 6.94433 84.4142
lradius 31.6307
lwrist 0.992946
lhand -16.1758 21.7167
lfingers 7.12502
lthumb 10.0305 51.4577
rfemur -26.2118 -5.89108 23.0222
rtibia 22.5283
rfoot -7.17649 -1.81881
rtoes -0.883488
lfemur 13.9947 -1.46728 -20.905
ltibia 13.4486
lfoot 4.1112 -12.0559
ltoes -1.58273
132
root 3.09443 17.5095 -21.8392 -173.65 85.0893 -177.762
lowerback 0.214922 -0.889876 -2.10721
upperback 1.08016 -1.17964 2.64619
thorax 1.08718 -0.614837 3.89526
lowerneck -14.276 -3.43179 -8.34545
upperneck 37.6781 -1.7198 2.06826
head 15.9154 -1.11184 2.22298
rclavicle 9.93923e-017 -2.62396e-014
rhumerus -34.1906 -22.1217 -72.0161
rradius 20.4588
rwrist -5.42367
rhand -20.8764 12.093
rfingers 7.12502
rthumb 5.49369 -17.8158
lclavicle 9.93923e-017 -2.62396e-014
lhumerus -36.8699 7.34393 84.2321
lradius 31.5782
lwrist 0.920087
lhand -16.1062 21.8663
lfingers 7.12502
lthumb 10.0977 51.604
rfemur -25.8177 -5.88254 22.5284
rtibia 22.737
rfoot -7.2801 -1.68512
rtoes 3.56138
lfemur 13.782 -1.81587 -21.1792
ltibia 14.3756
lfoot 5.37751 -11.5892
ltoes 0.0298275
133
root 3.24398 17.5251 -21.8175 -161.238 84.8533 -165.023
lowerback 0.457582 -0.964399 -1.07874
upperback 1.10032 -1.27301 3.07761
thorax 0.966298 -0.647575 3.76367
lowerneck -14.1825 -3.32763 -8.42026
upperneck 37.6487 -1.49694 1.94561
head 15.8639 -1.04451 2.22143
rclavicle 2.0773e-014 -1.59028e-015
rhumerus -34.5396 -22.1642 -71.6237
rradius 20.1976
rwrist -4.70882
rhand -20.6014 12.0956
rfingers 7.12502
rthumb 5.75915 -17.8061
lclavicle 2.0773e-014 -1.59028e-015
lhumerus -37.4413 8.13067 84.0182
lradius 31.4534
lwrist 0.597171
lhand -15.7815 21.7537
lfingers 7.12502
lthumb 10.411 51.4759
rfemur -25.0943 -7.13628 24.1647
rtibia 22.8804
rfoot -7.2419 -0.801957
rtoes 0.292541
lfemur 13.7831 -2.13068 -19.7852
ltibia 15.5622
lfoot 6.69941 -11.4158
ltoes 1.81065
134
root 3.3947 17.5314 -21.7917 -151.019 84.5592 -154.439
lowerback 0.666146 -0.979812 -0.195958
upperback 1.23166 -1.28346 3.39422
thorax 0.972345 -0.642058 3.59536
lowerneck -14.3268 -3.2824 -8.42655
upperneck 37.6016 -1.41933 1.92657
head 15.8692 -1.01897 2.22546
rclavicle -6.16232e-015 -1.19271e-014
rhumerus -34.7309 -21.317 -71.9509
rradius 20.481
rwrist -5.25151
rhand -20.4216 11.7111
rfingers 7.12502
rthumb 5.93282 -18.1858
lclavicle -6.16232e-015 -1.19271e-014
lhumerus -37.7721 8.34423 83.8997
lradius 31.3071
lwrist 0.762055
lhand -15.6938 21.8849
lfingers 7.12502
lthumb 10.4956 51.6029
rfemur -24.3721 -8.10545 25.5945
rtibia 23.1078
rfoot -7.32024 0.413591
rtoes -1.30436
lfemur 13.8455 -2.19392 -18.4844
ltibia 16.6348
lfoot 8.31698 -11.2125
ltoes 3.85379
